<svg width="64" height="16" viewBox="0 0 64 16" fill="none" xmlns="http://www.w3.org/2000/svg">
<path fill-rule="evenodd" clip-rule="evenodd" d="M0 16V0H3L6.94251 5.42094L5.21766 8.04928L3 5V11.4286L0 16ZM7.05749 10.5791L11 16H14V0L11 4.57143V11L8.78234 7.95072L7.05749 10.5791Z" fill="#2563EB"/>
<path d="M26.324 13H24.364L19.926 6.294V13H17.966V3.214H19.926L24.364 9.934V3.214H26.324V13Z" fill="black"/>
<path d="M31.2849 13.126C30.5383 13.126 29.8663 12.9627 29.2689 12.636C28.6716 12.3 28.2003 11.8287 27.8549 11.222C27.5189 10.6153 27.3509 9.91533 27.3509 9.122C27.3509 8.32867 27.5236 7.62867 27.8689 7.022C28.2236 6.41533 28.7043 5.94867 29.3109 5.622C29.9176 5.286 30.5943 5.118 31.3409 5.118C32.0876 5.118 32.7643 5.286 33.3709 5.622C33.9776 5.94867 34.4536 6.41533 34.7989 7.022C35.1536 7.62867 35.3309 8.32867 35.3309 9.122C35.3309 9.91533 35.1489 10.6153 34.7849 11.222C34.4303 11.8287 33.9449 12.3 33.3289 12.636C32.7223 12.9627 32.0409 13.126 31.2849 13.126ZM31.2849 11.418C31.6396 11.418 31.9709 11.334 32.2789 11.166C32.5963 10.9887 32.8483 10.7273 33.0349 10.382C33.2216 10.0367 33.3149 9.61667 33.3149 9.122C33.3149 8.38467 33.1189 7.82 32.7269 7.428C32.3443 7.02667 31.8729 6.826 31.3129 6.826C30.7529 6.826 30.2816 7.02667 29.8989 7.428C29.5256 7.82 29.3389 8.38467 29.3389 9.122C29.3389 9.85933 29.5209 10.4287 29.8849 10.83C30.2583 11.222 30.7249 11.418 31.2849 11.418Z" fill="black"/>
<path d="M39.5827 11.194L41.5427 5.244H43.6287L40.7587 13H38.3787L35.5227 5.244H37.6227L39.5827 11.194Z" fill="black"/>
<path d="M47.7535 13.126C47.0069 13.126 46.3349 12.9627 45.7375 12.636C45.1402 12.3 44.6689 11.8287 44.3235 11.222C43.9875 10.6153 43.8195 9.91533 43.8195 9.122C43.8195 8.32867 43.9922 7.62867 44.3375 7.022C44.6922 6.41533 45.1729 5.94867 45.7795 5.622C46.3862 5.286 47.0629 5.118 47.8095 5.118C48.5562 5.118 49.2329 5.286 49.8395 5.622C50.4462 5.94867 50.9222 6.41533 51.2675 7.022C51.6222 7.62867 51.7995 8.32867 51.7995 9.122C51.7995 9.91533 51.6175 10.6153 51.2535 11.222C50.8989 11.8287 50.4135 12.3 49.7975 12.636C49.1909 12.9627 48.5095 13.126 47.7535 13.126ZM47.7535 11.418C48.1082 11.418 48.4395 11.334 48.7475 11.166C49.0649 10.9887 49.3169 10.7273 49.5035 10.382C49.6902 10.0367 49.7835 9.61667 49.7835 9.122C49.7835 8.38467 49.5875 7.82 49.1955 7.428C48.8129 7.02667 48.3415 6.826 47.7815 6.826C47.2215 6.826 46.7502 7.02667 46.3675 7.428C45.9942 7.82 45.8075 8.38467 45.8075 9.122C45.8075 9.85933 45.9895 10.4287 46.3535 10.83C46.7269 11.222 47.1935 11.418 47.7535 11.418Z" fill="black"/>
<path d="M54.7773 2.64V13H52.8173V2.64H54.7773Z" fill="black"/>
<path d="M55.7897 9.094C55.7897 8.31 55.9437 7.61467 56.2517 7.008C56.5691 6.40133 56.9937 5.93467 57.5257 5.608C58.0671 5.28133 58.6691 5.118 59.3317 5.118C59.9104 5.118 60.4144 5.23467 60.8437 5.468C61.2824 5.70133 61.6324 5.99533 61.8937 6.35V5.244H63.8677V13H61.8937V11.866C61.6417 12.23 61.2917 12.5333 60.8437 12.776C60.4051 13.0093 59.8964 13.126 59.3177 13.126C58.6644 13.126 58.0671 12.958 57.5257 12.622C56.9937 12.286 56.5691 11.8147 56.2517 11.208C55.9437 10.592 55.7897 9.88733 55.7897 9.094ZM61.8937 9.122C61.8937 8.646 61.8004 8.24 61.6137 7.904C61.4271 7.55867 61.1751 7.29733 60.8577 7.12C60.5404 6.93333 60.1997 6.84 59.8357 6.84C59.4717 6.84 59.1357 6.92867 58.8277 7.106C58.5197 7.28333 58.2677 7.54467 58.0717 7.89C57.8851 8.226 57.7917 8.62733 57.7917 9.094C57.7917 9.56067 57.8851 9.97133 58.0717 10.326C58.2677 10.6713 58.5197 10.9373 58.8277 11.124C59.1451 11.3107 59.4811 11.404 59.8357 11.404C60.1997 11.404 60.5404 11.3153 60.8577 11.138C61.1751 10.9513 61.4271 10.69 61.6137 10.354C61.8004 10.0087 61.8937 9.598 61.8937 9.122Z" fill="black"/>
</svg>
